# xmcd
#
# Track frame offsets: 
#        150
#        7225
#        18350
#        35513
#        50350
#        67190
#        82280
#        99375
#        146475
#        153695
#        165668
#        195180
#
# Disc length: 3104 seconds
#
# Revision: 1
# Processed by: cddbd v1.5.2PL0 Copyright (c) Steve Scherf et al.
# Submitted via: ExactAudioCopyFreeDBPlugin 1.0
#
DISCID=a00c1e0c
DTITLE=Kramer, Crazy Chris - Journey
DYEAR=2000
DGENRE=Blues
TTITLE0=Introduction
TTITLE1=Carneval de la Algeria
TTITLE2=When you gotta Leave (these sad brown eyes)
TTITLE3=On my Way
TTITLE4=Dale's Tune
TTITLE5=Good morning in Calcutta
TTITLE6=Teardrops in my Suitcase
TTITLE7=Just another day on the Highway
TTITLE8=In the middle of Nowhere
TTITLE9=Alone in the Desert
TTITLE10=Benedicita
TTITLE11=Fun(k)time
EXTD=YEAR: 2000
EXTT0=
EXTT1=
EXTT2=
EXTT3=
EXTT4=
EXTT5=
EXTT6=
EXTT7=
EXTT8=
EXTT9=
EXTT10=
EXTT11=
PLAYORDER=
